# xmcd
#
# Track frame offsets:
#	150
#	2852
#	25105
#	46742
#	65785
#	85596
#	105918
#	126401
#	140948
#	160904
#
# Disc length: 2492 seconds
#
# Revision: 0
# Processed by: cddbd v1.5.2PL0 Copyright (c) Steve Scherf et al.
# Submitted via: EZCDAudioConverter 7.1.5.1
#
DISCID=8009ba0a
DTITLE=MP4
DYEAR=2002
DGENRE=
TTITLE0=Format Data, Not Playable
TTITLE1=打工仔心声 (Video)
TTITLE2=乜嘢系恋爱
TTITLE3=K歌人民共和国
TTITLE4=给爸爸的信
TTITLE5=	啲嗒乐坛男歌手
TTITLE6=Let's Get Wicked
TTITLE7=得把声.(齐齐Jam)
TTITLE8=打工仔心声
TTITLE9=给爸爸的信(DJ Simon Extended Mix)
EXTD=
EXTT0=
EXTT1=
EXTT2=
EXTT3=
EXTT4=
EXTT5=
EXTT6=
EXTT7=
EXTT8=
EXTT9=
PLAYORDER=
